<svg width="144" height="30" viewBox="0 0 144 30" fill="none" xmlns="http://www.w3.org/2000/svg">
<path fill-rule="evenodd" clip-rule="evenodd" d="M5.773 23.9179C4.67641 23.8941 3.48744 23.3591 2.62273 21.9123C2.37534 21.4984 1.83924 21.3634 1.42532 21.6108C1.0114 21.8582 0.876402 22.3943 1.12379 22.8082C2.29288 24.7642 4.03007 25.6268 5.73513 25.6638C7.39514 25.6998 9.00012 24.9504 9.94651 23.7521C10.2454 23.3737 10.1809 22.8246 9.80247 22.5258C9.42405 22.2269 8.87498 22.2914 8.57611 22.6698C7.98679 23.416 6.91464 23.9427 5.773 23.9179Z" fill="white"/>
<path fill-rule="evenodd" clip-rule="evenodd" d="M12.4572 19.1691C12.9394 19.1691 13.3303 19.56 13.3303 20.0423V20.0552C13.3304 21.4728 13.3304 23.5435 12.4899 25.3309C12.0578 26.2496 11.4025 27.1014 10.4218 27.7586C9.44518 28.4131 8.19138 28.8444 6.60491 28.996C6.12488 29.0418 5.69856 28.6899 5.6527 28.2099C5.60684 27.7298 5.9588 27.3035 6.43883 27.2576C7.79928 27.1277 8.76085 26.7696 9.44964 26.308C10.1344 25.8491 10.5945 25.2579 10.9096 24.5878C11.5608 23.2031 11.5841 21.5202 11.5841 20.0423C11.5841 19.56 11.975 19.1691 12.4572 19.1691Z" fill="white"/>
<path fill-rule="evenodd" clip-rule="evenodd" d="M3.23011 20.7156C3.88923 21.9407 5.40869 22.5565 6.97188 22.0516C7.75383 21.7991 8.66075 21.3019 9.3569 20.2602C10.0435 19.2327 10.4663 17.7633 10.4663 15.673C10.4663 15.1908 10.0754 14.7999 9.59318 14.7999C9.11096 14.7999 8.72005 15.1908 8.72005 15.673C8.72005 17.5401 8.34148 18.6367 7.905 19.2899C7.47806 19.9288 6.94015 20.2268 6.43519 20.3899C5.59939 20.6598 4.99145 20.3037 4.76792 19.8882C4.5798 19.5386 4.51987 18.8362 5.54646 18.0804C7.39095 16.7223 7.56793 14.5973 6.66113 13.1625C6.21194 12.4517 5.48824 11.9022 4.58582 11.7435C3.6742 11.5832 2.69179 11.8402 1.75873 12.5313C1.37125 12.8184 1.28982 13.3652 1.57686 13.7527C1.86389 14.1401 2.4107 14.2216 2.79818 13.9345C3.42134 13.4729 3.92824 13.401 4.28338 13.4634C4.64771 13.5275 4.9682 13.7524 5.18495 14.0954C5.61005 14.768 5.60597 15.868 4.51109 16.6742C2.95763 17.818 2.53558 19.4247 3.23011 20.7156Z" fill="white"/>
<path fill-rule="evenodd" clip-rule="evenodd" d="M22.2272 23.9179C23.3238 23.8941 24.5128 23.3591 25.3775 21.9123C25.6249 21.4984 26.161 21.3634 26.5749 21.6108C26.9888 21.8582 27.1238 22.3943 26.8765 22.8082C25.7074 24.7642 23.9702 25.6268 22.2651 25.6638C20.6051 25.6998 19.0001 24.9504 18.0537 23.7521C17.7549 23.3737 17.8193 22.8246 18.1978 22.5258C18.5762 22.2269 19.1253 22.2914 19.4241 22.6698C20.0135 23.416 21.0856 23.9427 22.2272 23.9179Z" fill="white"/>
<path fill-rule="evenodd" clip-rule="evenodd" d="M15.543 19.1691C15.0608 19.1691 14.6699 19.56 14.6699 20.0423V20.0552C14.6699 21.4728 14.6699 23.5435 15.5104 25.3309C15.9424 26.2496 16.5977 27.1014 17.5784 27.7586C18.5551 28.4131 19.8089 28.8444 21.3953 28.996C21.8754 29.0418 22.3017 28.6899 22.3475 28.2099C22.3934 27.7298 22.0414 27.3035 21.5614 27.2576C20.201 27.1277 19.2394 26.7696 18.5506 26.308C17.8659 25.8491 17.4057 25.2579 17.0906 24.5878C16.4395 23.2031 16.4162 21.5202 16.4162 20.0423C16.4162 19.56 16.0252 19.1691 15.543 19.1691Z" fill="white"/>
<path fill-rule="evenodd" clip-rule="evenodd" d="M24.7701 20.7156C24.111 21.9407 22.5916 22.5565 21.0284 22.0516C20.2464 21.7991 19.3395 21.3019 18.6433 20.2602C17.9567 19.2327 17.5339 17.7633 17.5339 15.673C17.5339 15.1908 17.9248 14.7999 18.4071 14.7999C18.8893 14.7999 19.2802 15.1908 19.2802 15.673C19.2802 17.5401 19.6588 18.6367 20.0952 19.2899C20.5222 19.9288 21.0601 20.2268 21.565 20.3899C22.4008 20.6598 23.0088 20.3037 23.2323 19.8882C23.4204 19.5386 23.4804 18.8362 22.4538 18.0804C20.6093 16.7223 20.4323 14.5973 21.3391 13.1625C21.7883 12.4517 22.512 11.9022 23.4144 11.7435C24.326 11.5832 25.3085 11.8402 26.2415 12.5313C26.629 12.8184 26.7104 13.3652 26.4234 13.7527C26.1363 14.1401 25.5895 14.2216 25.2021 13.9345C24.5789 13.4729 24.072 13.401 23.7169 13.4634C23.3525 13.5275 23.032 13.7524 22.8153 14.0954C22.3902 14.768 22.3943 15.868 23.4892 16.6742C25.0426 17.818 25.4647 19.4247 24.7701 20.7156Z" fill="white"/>
<path fill-rule="evenodd" clip-rule="evenodd" d="M14.0545 4.74626C11.7553 4.74626 9.98845 6.39986 9.98845 8.53148C9.98845 9.01369 9.59753 9.4046 9.11532 9.4046C8.6331 9.4046 8.24219 9.01369 8.24219 8.53148C8.24219 5.31436 10.9166 3 14.0545 3C17.1965 3 19.8501 5.31808 19.8501 8.53148C19.8501 9.01369 19.4592 9.4046 18.977 9.4046C18.4948 9.4046 18.1038 9.01369 18.1038 8.53148C18.1038 6.39615 16.3498 4.74626 14.0545 4.74626Z" fill="white"/>
<circle cx="9.54618" cy="11.958" r="1.21268" fill="white"/>
<circle r="1.21268" transform="matrix(-1 0 0 1 18.4543 11.958)" fill="white"/>
<path d="M34.6101 23.3306H37.1739V14.2293H37.1951L41.3056 21.3909H42.9795L47.09 14.2293H47.1324V23.3306H49.6961V9.25003H47.1324L42.1743 18.255H42.1319L37.1739 9.25003H34.6101V23.3306Z" fill="white"/>
<path d="M56.6481 23.5001C58.0889 23.5001 59.1907 22.9492 59.9323 21.9534L59.9747 21.9745V23.3306H62.2418V12.9907H59.8687V14.2408L59.8264 14.262C59.0848 13.3297 57.9406 12.8424 56.6269 12.8424C53.7877 12.8424 51.6477 15.0884 51.6477 18.203C51.6477 21.4025 53.7877 23.5001 56.6481 23.5001ZM57.0295 21.3389C55.2709 21.3389 54.0632 20.0464 54.0632 18.2242C54.0632 16.2325 55.3768 14.9824 57.0295 14.9824C58.7246 14.9824 59.9747 16.3808 59.9747 18.2242C59.9747 20.0888 58.6398 21.3389 57.0295 21.3389Z" fill="white"/>
<path d="M69.3499 23.5001C71.5958 23.5001 72.9307 22.6949 73.7994 21.572L72.1679 20.1312C71.6382 20.8304 70.7059 21.3389 69.5618 21.3389C67.7396 21.3389 66.4895 20.0676 66.4895 18.1607C66.4895 16.2749 67.7184 14.9824 69.5618 14.9824C70.6847 14.9824 71.5746 15.4697 72.1679 16.169L73.7782 14.7705C72.74 13.4992 71.0449 12.8424 69.4346 12.8424C66.2988 12.8424 64.074 15.0036 64.074 18.1818C64.074 21.3389 66.2988 23.5001 69.3499 23.5001Z" fill="white"/>
<path d="M75.5417 23.3306H77.9147V18.4361C77.9147 16.741 78.9318 15.4486 80.7328 15.4486C80.9023 15.4486 81.1777 15.4697 81.4532 15.4909V12.8424H81.1565C79.9064 12.8424 78.7623 13.4569 77.9571 14.5375H77.9147V12.9907H75.5417V23.3306Z" fill="white"/>
<path d="M87.6465 23.5001C90.8247 23.5001 93.0707 21.3177 93.0707 18.1818C93.0707 15.0036 90.8247 12.8424 87.6465 12.8424C84.3835 12.8424 82.2223 15.1307 82.2223 18.1818C82.2223 21.2118 84.3835 23.5001 87.6465 23.5001ZM87.6465 21.3389C85.8666 21.3389 84.6377 19.9405 84.6377 18.1818C84.6377 16.3808 85.8455 14.9824 87.6465 14.9824C89.3415 14.9824 90.6552 16.2749 90.6552 18.1818C90.6552 20.0464 89.3203 21.3389 87.6465 21.3389Z" fill="white"/>
<path d="M94.9926 23.3306H97.3657V18.1818C97.3657 16.1478 98.4251 14.9824 99.8447 14.9824C101.243 14.9824 101.9 16.0842 101.9 17.9488V23.3306H104.273V18.1818C104.273 16.1478 105.354 14.9824 106.689 14.9824C108.087 14.9824 108.701 16.0842 108.701 17.9488V23.3306H111.075V17.3555C111.075 14.262 109.718 12.8424 107.451 12.8424C105.926 12.8424 104.612 13.4357 103.743 14.5586H103.701C103.087 13.3933 102.006 12.8424 100.608 12.8424C99.421 12.8424 98.2344 13.3933 97.3869 14.4103H97.3657V12.9907H94.9926V23.3306Z" fill="white"/>
<path d="M122.91 18.0335C122.91 15.0248 120.94 12.8424 118.037 12.8424C115.007 12.8424 112.846 14.9824 112.846 18.1607C112.846 21.4025 115.071 23.5001 118.207 23.5001C120.431 23.5001 121.724 22.6738 122.593 21.5508L120.94 20.1312C120.41 20.788 119.563 21.3389 118.334 21.3389C116.723 21.3389 115.6 20.449 115.304 18.9446H122.847C122.868 18.7751 122.91 18.4149 122.91 18.0335ZM118.016 14.9824C119.372 14.9824 120.219 15.8299 120.516 17.0801H115.346C115.685 15.724 116.702 14.9824 118.016 14.9824Z" fill="white"/>
<path d="M128.131 23.5001C129.487 23.5001 130.144 23.2246 130.758 22.8856L130.144 20.8304C129.593 21.127 129.021 21.2753 128.618 21.2753C127.94 21.2753 127.622 20.8939 127.622 19.8345V15.0036H130.652V12.9907H127.622V9.30396L125.249 9.55822V12.9907H123.978V15.0036H125.249V20.0676C125.249 22.3771 126.351 23.5001 128.131 23.5001Z" fill="white"/>
<path d="M136.407 23.5001C137.848 23.5001 138.95 22.9492 139.691 21.9534L139.734 21.9745V23.3306H142.001V12.9907H139.628V14.2408L139.585 14.262C138.844 13.3297 137.699 12.8424 136.386 12.8424C133.547 12.8424 131.407 15.0884 131.407 18.203C131.407 21.4025 133.547 23.5001 136.407 23.5001ZM136.788 21.3389C135.03 21.3389 133.822 20.0464 133.822 18.2242C133.822 16.2325 135.136 14.9824 136.788 14.9824C138.483 14.9824 139.734 16.3808 139.734 18.2242C139.734 20.0888 138.399 21.3389 136.788 21.3389Z" fill="white"/>
</svg>
