<svg width="999" height="180" viewBox="0 0 999 180" fill="none" xmlns="http://www.w3.org/2000/svg">
<path d="M490.617 95.4184C507.611 95.4184 521.446 109.254 521.446 126.247C521.446 143.241 507.611 157.076 490.617 157.076C473.624 157.076 459.788 143.241 459.788 126.247C459.788 109.254 473.624 95.4184 490.617 95.4184ZM490.617 74.9023C462.252 74.9023 439.254 97.9008 439.254 126.266C439.254 154.63 462.252 177.629 490.617 177.629C518.982 177.629 541.981 154.63 541.981 126.266C541.981 97.9008 518.982 74.9023 490.617 74.9023Z" fill="white"/>
<path d="M0 177.172V33.4866H25.6635L74.307 129.149L122.75 33.4866H148.413V177.172H126.656V71.0508L82.7217 156.656H65.8925L21.7574 71.2698V177.191H0V177.172Z" fill="white"/>
<path d="M200.469 179.637C191.853 179.637 184.734 178.195 179.113 175.329C173.491 172.463 169.329 168.667 166.591 163.939C163.853 159.212 162.484 154.046 162.484 148.443C162.484 138.586 166.318 130.792 173.984 125.043C181.65 119.293 192.602 116.427 206.82 116.427H233.506V114.584C233.506 106.644 231.352 100.693 227.044 96.7324C222.737 92.7716 217.151 90.782 210.307 90.782C204.283 90.782 199.045 92.2605 194.609 95.1992C190.156 98.1379 187.454 102.482 186.505 108.232H164.748C165.423 100.839 167.924 94.5056 172.25 89.2488C176.557 83.9737 182.033 79.9399 188.677 77.129C195.321 74.3181 202.604 72.9126 210.544 72.9126C224.781 72.9126 235.787 76.6361 243.6 84.1015C251.394 91.5669 255.3 101.715 255.3 114.584V177.191H236.408L234.565 159.741C231.699 165.363 227.519 170.072 222.043 173.905C216.549 177.72 209.358 179.637 200.469 179.637ZM204.776 161.986C210.654 161.986 215.618 160.581 219.652 157.77C223.686 154.959 226.844 151.235 229.089 146.581C231.352 141.926 232.758 136.797 233.305 131.194H209.084C200.468 131.194 194.335 132.709 190.703 135.702C187.071 138.714 185.264 142.474 185.264 147.001C185.264 151.655 187.016 155.306 190.502 157.989C194.007 160.654 198.753 161.986 204.776 161.986Z" fill="white"/>
<path d="M318.146 179.637C308.162 179.637 299.218 177.373 291.351 172.865C283.484 168.356 277.315 162.096 272.879 154.083C268.425 146.07 266.217 136.815 266.217 126.265C266.217 115.734 268.444 106.461 272.879 98.4482C277.333 90.4352 283.484 84.1745 291.351 79.6661C299.218 75.1576 308.144 72.8943 318.146 72.8943C330.74 72.8943 341.309 76.1798 349.869 82.7508C358.412 89.3218 363.924 98.2109 366.388 109.436H343.609C342.24 103.833 339.228 99.4521 334.574 96.2944C329.919 93.1549 324.443 91.5669 318.146 91.5669C312.816 91.5669 307.888 92.8994 303.361 95.5643C298.853 98.2292 295.22 102.135 292.483 107.264C289.745 112.393 288.376 118.727 288.376 126.247C288.376 133.767 289.745 140.101 292.483 145.23C295.22 150.359 298.853 154.302 303.361 157.04C307.87 159.777 312.798 161.146 318.146 161.146C324.443 161.146 329.919 159.577 334.574 156.419C339.228 153.28 342.24 148.826 343.609 143.076H366.388C364.052 154.028 358.594 162.862 349.961 169.561C341.345 176.278 330.74 179.637 318.146 179.637Z" fill="white"/>
<path d="M377.65 177.172V75.3584H397.144L398.988 94.6516C402.547 87.9528 407.512 82.6413 413.864 78.7352C420.234 74.8291 427.919 72.876 436.954 72.876V95.6555H431.003C424.98 95.6555 419.614 96.6411 414.886 98.6307C410.159 100.62 406.398 103.96 403.588 108.688C400.777 113.415 399.371 119.95 399.371 128.291V177.154H377.65V177.172Z" fill="white"/>
<path d="M554.281 177.172V75.3584H573.574L575.418 89.7233C578.703 84.5213 583.048 80.4144 588.45 77.4027C593.853 74.391 600.114 72.8943 607.233 72.8943C623.386 72.8943 634.593 79.2645 640.891 91.9867C644.578 86.1093 649.542 81.4548 655.767 78.0233C661.991 74.61 668.726 72.8943 675.991 72.8943C688.713 72.8943 698.697 76.7273 705.962 84.3935C713.208 92.0597 716.84 103.486 716.84 118.672V177.172H695.083V120.917C695.083 101.204 687.563 91.3661 672.505 91.3661C664.838 91.3661 658.578 94.2318 653.722 99.9814C648.867 105.731 646.439 113.945 646.439 124.623V177.172H624.682V120.917C624.682 101.204 617.089 91.3661 601.903 91.3661C594.383 91.3661 588.177 94.2318 583.321 99.9814C578.466 105.731 576.038 113.945 576.038 124.623V177.172H554.281Z" fill="white"/>
<path d="M779.01 179.637C769.025 179.637 760.154 177.41 752.434 172.974C744.694 168.521 738.653 162.333 734.272 154.393C729.891 146.453 727.701 137.217 727.701 126.685C727.701 116.007 729.855 106.644 734.163 98.5577C738.47 90.49 744.494 84.1927 752.233 79.6661C759.972 75.1576 768.971 72.8943 779.229 72.8943C789.213 72.8943 797.901 75.1211 805.294 79.5565C812.686 84.0102 818.436 89.9241 822.543 97.3165C826.649 104.709 828.694 112.85 828.694 121.739C828.694 123.108 828.657 124.586 828.584 126.156C828.511 127.726 828.42 129.478 828.274 131.394H749.039C749.714 141.251 752.963 148.735 758.785 153.864C764.608 158.993 771.344 161.566 779.01 161.566C785.161 161.566 790.326 160.161 794.506 157.35C798.686 154.539 801.789 150.742 803.852 145.96H825.609C822.871 155.543 817.432 163.538 809.291 169.981C801.15 176.424 791.057 179.637 779.01 179.637ZM779.01 90.7455C771.763 90.7455 765.32 92.8993 759.716 97.207C754.095 101.515 750.681 107.976 749.458 116.61H806.936C806.516 108.67 803.724 102.373 798.522 97.7181C793.302 93.0819 786.804 90.7455 779.01 90.7455Z" fill="white"/>
<path d="M881.078 177.173C871.094 177.173 863.154 174.745 857.259 169.89C851.381 165.034 848.424 156.383 848.424 143.916V93.6296H830.975V75.3586H848.424L851.089 49.4944H870.182V75.3586H898.911V93.6296H870.182V143.916C870.182 149.538 871.386 153.389 873.777 155.507C876.168 157.624 880.312 158.682 886.189 158.682H897.889V177.154H881.078V177.173Z" fill="white"/>
<path d="M943.578 179.637C934.963 179.637 927.844 178.195 922.222 175.329C916.6 172.463 912.439 168.667 909.701 163.939C906.963 159.212 905.594 154.046 905.594 148.443C905.594 138.586 909.427 130.792 917.093 125.043C924.759 119.293 935.711 116.427 949.93 116.427H976.615V114.584C976.615 106.644 974.461 100.693 970.154 96.7324C965.846 92.7716 960.261 90.782 953.416 90.782C947.393 90.782 942.154 92.2605 937.719 95.1992C933.265 98.1379 930.564 102.482 929.614 108.232H907.857C908.532 100.839 911.033 94.5056 915.359 89.2488C919.667 83.9737 925.142 79.9399 931.786 77.129C938.43 74.3181 945.713 72.9126 953.653 72.9126C967.89 72.9126 978.897 76.6361 986.709 84.1015C994.503 91.5669 998.409 101.715 998.409 114.584V177.191H979.517L977.674 159.741C974.808 165.363 970.628 170.072 965.153 173.905C959.658 177.72 952.467 179.637 943.578 179.637ZM947.886 161.986C953.763 161.986 958.727 160.581 962.761 157.77C966.795 154.959 969.953 151.235 972.198 146.581C974.461 141.926 975.867 136.797 976.415 131.194H952.193C943.578 131.194 937.445 132.709 933.812 135.702C930.18 138.714 928.373 142.474 928.373 147.001C928.373 151.655 930.125 155.306 933.612 157.989C937.116 160.654 941.862 161.986 947.886 161.986Z" fill="white"/>
<path d="M944.735 31.8959L923.528 28.8199C922.873 28.7202 922.545 27.9654 922.929 27.4243L929.614 17.9683C930.07 17.3132 929.543 16.5584 928.887 16.5584C928.716 16.5584 928.545 16.6154 928.374 16.7293L918.911 23.4083C918.754 23.5222 918.568 23.5792 918.397 23.5792C917.984 23.5792 917.585 23.2802 917.514 22.8102L914.435 1.61973C914.364 1.10706 913.951 0.850708 913.552 0.850708C913.153 0.850708 912.739 1.10706 912.668 1.61973L909.59 22.8244C909.518 23.2944 909.119 23.5934 908.706 23.5934C908.535 23.5934 908.35 23.5365 908.193 23.4368L898.943 16.9572C898.772 16.8432 898.601 16.7863 898.43 16.7863C897.789 16.7863 897.247 17.541 897.703 18.1961L904.188 27.4385C904.573 27.9797 904.245 28.7344 903.59 28.8341L882.368 31.9101C881.356 32.0525 881.356 33.5193 882.368 33.676L903.59 36.752C904.245 36.8517 904.573 37.6065 904.188 38.1477L897.789 47.3046C897.333 47.9454 897.874 48.7144 898.516 48.7144C898.687 48.7144 898.858 48.6574 899.029 48.5435L908.193 42.1493C908.35 42.0354 908.535 41.9927 908.706 41.9927C909.119 41.9927 909.518 42.2917 909.59 42.7617L912.668 63.9664C912.739 64.4791 913.153 64.7354 913.552 64.7354C913.951 64.7354 914.364 64.4791 914.435 63.9664L917.514 42.776C917.585 42.306 917.984 42.0069 918.397 42.0069C918.568 42.0069 918.754 42.0639 918.911 42.1778L928.374 48.8426C928.545 48.9708 928.716 49.0135 928.887 49.0135C929.543 49.0135 930.07 48.2444 929.614 47.6036L922.929 38.1619C922.545 37.6208 922.873 36.866 923.528 36.7663L944.735 33.6902C945.747 33.5194 945.747 32.0525 944.735 31.8959Z" fill="white"/>
</svg>